<?xml version="1.0" encoding="UTF-8" standalone="no"?><!DOCTYPE svg PUBLIC "-//W3C//DTD SVG 1.1//EN" "http://www.w3.org/Graphics/SVG/1.1/DTD/svg11.dtd"><svg width="100%" height="100%" viewBox="0 0 270 270" version="1.1" xmlns="http://www.w3.org/2000/svg" xmlns:xlink="http://www.w3.org/1999/xlink" xml:space="preserve" xmlns:serif="http://www.serif.com/" style="fill-rule:evenodd;clip-rule:evenodd;stroke-linejoin:round;stroke-miterlimit:1.41421;"><rect id="Clear-Night" serif:id="Clear Night" x="0" y="0" width="269.76" height="269.76" style="fill:none;"/><path d="M29.464,34.163l3.195,9.832l10.339,0l-8.365,6.077l3.195,9.833l-8.364,-6.077l-8.364,6.077l3.195,-9.833l-8.365,-6.077l10.339,0l3.195,-9.832Z" style="fill:#ebdd2f;"/><path d="M230.532,75.654l3.864,11.893l12.504,0l-10.116,7.349l3.864,11.893l-10.116,-7.35l-10.116,7.35l3.864,-11.893l-10.116,-7.349l12.504,0l3.864,-11.893Z" style="fill:#ebdd2f;"/><path d="M53,207.9l2.361,7.267l7.641,0l-6.182,4.492l2.361,7.267l-6.181,-4.492l-6.182,4.492l2.361,-7.267l-6.181,-4.492l7.641,0l2.361,-7.267Z" style="fill:#ebdd2f;"/><path d="M200.15,45.59c-85.823,-39.712 -148.755,32.32 -147.119,89.894c1.616,56.859 61.89,136.739 163.729,81.504c-54.603,-5.809 -85.959,-40.493 -85.959,-81.253c0,-40.76 21.763,-76.61 69.349,-90.145Z" style="fill:#ebdd2f;"/></svg>