<?xml version="1.0" encoding="UTF-8" standalone="no"?><!DOCTYPE svg PUBLIC "-//W3C//DTD SVG 1.1//EN" "http://www.w3.org/Graphics/SVG/1.1/DTD/svg11.dtd"><svg width="100%" height="100%" viewBox="0 0 337 337" version="1.1" xmlns="http://www.w3.org/2000/svg" xmlns:xlink="http://www.w3.org/1999/xlink" xml:space="preserve" xmlns:serif="http://www.serif.com/" style="fill-rule:evenodd;clip-rule:evenodd;stroke-linejoin:round;stroke-miterlimit:1.41421;"><rect id="Artboard1" x="0" y="0" width="336.647" height="336.647" style="fill:none;"/><clipPath id="_clip1"><rect x="0" y="0" width="336.647" height="336.647"/></clipPath><g clip-path="url(#_clip1)"><path d="M215.314,245.267c-22.301,16.253 -49.759,25.846 -79.44,25.846c-74.556,0 -135.086,-60.531 -135.086,-135.087c0,-74.556 60.53,-135.087 135.086,-135.087c74.557,0 135.087,60.531 135.087,135.087c0,29.681 -9.593,57.139 -25.845,79.44l89.235,89.236c4.112,4.112 4.112,10.788 0,14.9l-14.9,14.901c-4.112,4.112 -10.789,4.112 -14.901,0l-89.236,-89.236Zm-79.44,-201.999c51.195,0 92.758,41.564 92.758,92.758c0,51.195 -41.563,92.758 -92.758,92.758c-51.194,0 -92.757,-41.563 -92.757,-92.758c0,-51.194 41.563,-92.758 92.757,-92.758Z" style="fill:#fff;"/></g></svg>