<?xml version="1.0" encoding="UTF-8" standalone="no"?><!DOCTYPE svg PUBLIC "-//W3C//DTD SVG 1.1//EN" "http://www.w3.org/Graphics/SVG/1.1/DTD/svg11.dtd"><svg width="100%" height="100%" viewBox="0 0 270 273" version="1.1" xmlns="http://www.w3.org/2000/svg" xmlns:xlink="http://www.w3.org/1999/xlink" xml:space="preserve" xmlns:serif="http://www.serif.com/" style="fill-rule:evenodd;clip-rule:evenodd;stroke-linejoin:round;stroke-miterlimit:1.41421;"><rect id="Partly-Cloudy-Night" serif:id="Partly Cloudy Night" x="0" y="0" width="269.8" height="272.573" style="fill:none;"/><path d="M200.106,38.935c-85.823,-39.712 -148.755,32.319 -147.119,89.894c1.616,56.859 61.89,136.739 163.73,81.504c-54.603,-5.809 -85.96,-40.493 -85.96,-81.253c0,-40.76 21.763,-76.61 69.349,-90.145Z" style="fill:#ebdd2f;"/><g><path d="M34.561,187.107c-0.009,-0.226 -0.013,-0.452 -0.013,-0.679c0,-12.655 13.869,-22.929 30.953,-22.929c12.008,0 22.428,5.076 27.56,12.487c2.961,-1.125 6.215,-1.747 9.629,-1.747c11.339,0 21.494,6.847 23.392,16.451c16.945,1.07 30.57,14.947 30.57,28.193c0,10.502 -7.648,18.239 -19.432,22.479c-2.027,0.829 -4.315,1.714 -5.831,2.142c-1.79,0.505 -3.228,0.754 -4.984,1.04c-1.261,0.206 -5.187,0.523 -5.539,0.522c-19.188,-0.051 -75.811,0.183 -93.629,-1.621c-0.648,-0.066 -1.237,-0.206 -1.818,-0.305c-0.536,-0.09 -0.739,-0.169 -1.154,-0.268c-2.589,-0.62 -8.895,-3.576 -11.585,-5.62c-0.617,-0.469 -1.097,-0.849 -1.465,-1.159c-6.892,-5.156 -11.215,-12.563 -11.215,-20.788c0,-15.563 15.48,-28.198 34.548,-28.198l0.013,0Z" style="fill:#fff;"/></g><g><path d="M147.71,111.049c-0.009,-0.225 -0.014,-0.451 -0.014,-0.678c0,-12.655 13.87,-22.93 30.953,-22.93c12.008,0 22.428,5.077 27.56,12.488c2.961,-1.126 6.215,-1.748 9.629,-1.748c11.339,0 21.495,6.847 23.393,16.452c16.944,1.069 30.569,14.946 30.569,28.193c0,10.502 -7.647,18.238 -19.432,22.478c-2.026,0.829 -4.315,1.714 -5.83,2.142c-1.79,0.505 -3.229,0.754 -4.984,1.041c-1.261,0.205 -5.188,0.522 -5.539,0.521c-19.189,-0.05 -75.811,0.183 -93.63,-1.621c-0.647,-0.066 -1.237,-0.206 -1.817,-0.304c-0.537,-0.091 -0.74,-0.169 -1.154,-0.269c-2.59,-0.619 -8.896,-3.576 -11.586,-5.62c-0.616,-0.468 -1.096,-0.849 -1.465,-1.159c-6.891,-5.156 -11.215,-12.563 -11.215,-20.788c0,-15.563 15.481,-28.198 34.548,-28.198l0.014,0Z" style="fill:#fff;"/></g></svg>