<?xml version="1.0" encoding="UTF-8" standalone="no"?><!DOCTYPE svg PUBLIC "-//W3C//DTD SVG 1.1//EN" "http://www.w3.org/Graphics/SVG/1.1/DTD/svg11.dtd"><svg width="100%" height="100%" viewBox="0 0 270 273" version="1.1" xmlns="http://www.w3.org/2000/svg" xmlns:xlink="http://www.w3.org/1999/xlink" xml:space="preserve" xmlns:serif="http://www.serif.com/" style="fill-rule:evenodd;clip-rule:evenodd;stroke-linejoin:round;stroke-miterlimit:1.41421;"><rect id="Partly-Cloudy" serif:id="Partly Cloudy" x="0" y="0" width="269.8" height="272.573" style="fill:none;"/><clipPath id="_clip1"><rect x="0" y="0" width="269.8" height="272.573"/></clipPath><g clip-path="url(#_clip1)"><g><g><circle cx="56.926" cy="106.664" r="56.926" style="fill:#ebdd2f;"/></g><path d="M64.237,115.795c-0.015,-0.416 -0.023,-0.833 -0.023,-1.252c0,-23.372 23.352,-42.347 52.116,-42.347c20.217,0 37.762,9.375 46.402,23.062c4.986,-2.078 10.464,-3.227 16.213,-3.227c19.091,0 36.19,12.645 39.386,30.383c28.529,1.975 51.469,27.603 51.469,52.066c0,19.395 -12.876,33.684 -32.717,41.514c-3.412,1.531 -7.266,3.165 -9.817,3.955c-3.014,0.934 -5.436,1.393 -8.391,1.922c-2.124,0.38 -8.735,0.966 -9.326,0.964c-32.308,-0.094 -127.644,0.338 -157.645,-2.995c-1.09,-0.121 -2.082,-0.38 -3.06,-0.561c-0.903,-0.167 -1.245,-0.313 -1.943,-0.496c-4.36,-1.145 -14.977,-6.605 -19.507,-10.38c-1.037,-0.865 -1.845,-1.568 -2.466,-2.139c-11.603,-9.523 -18.882,-23.202 -18.882,-38.392c0,-28.742 26.064,-52.077 58.168,-52.077l0.023,0Z" style="fill:#fff;"/></g></g></svg>