<?xml version="1.0" encoding="UTF-8" standalone="no"?><!DOCTYPE svg PUBLIC "-//W3C//DTD SVG 1.1//EN" "http://www.w3.org/Graphics/SVG/1.1/DTD/svg11.dtd"><svg width="100%" height="100%" viewBox="0 0 270 273" version="1.1" xmlns="http://www.w3.org/2000/svg" xmlns:xlink="http://www.w3.org/1999/xlink" xml:space="preserve" xmlns:serif="http://www.serif.com/" style="fill-rule:evenodd;clip-rule:evenodd;stroke-linecap:round;stroke-linejoin:round;stroke-miterlimit:1.5;"><rect id="Rain" x="0" y="0" width="269.8" height="272.573" style="fill:none;"/><clipPath id="_clip1"><rect x="0" y="0" width="269.8" height="272.573"/></clipPath><g clip-path="url(#_clip1)"><g><path d="M59.525,71.064c-0.016,-0.426 -0.023,-0.853 -0.023,-1.281c0,-23.908 23.887,-43.317 53.31,-43.317c20.681,0 38.627,9.589 47.466,23.59c5.1,-2.126 10.704,-3.302 16.584,-3.302c19.529,0 37.02,12.936 40.289,31.08c29.183,2.02 52.649,28.236 52.649,53.26c0,19.84 -13.171,34.456 -33.467,42.466c-3.49,1.566 -7.432,3.237 -10.042,4.045c-3.083,0.955 -5.56,1.425 -8.584,1.966c-2.172,0.389 -8.934,0.988 -9.539,0.986c-33.049,-0.096 -130.57,0.346 -161.259,-3.063c-1.114,-0.124 -2.129,-0.389 -3.13,-0.574c-0.923,-0.171 -1.273,-0.32 -1.987,-0.508c-4.46,-1.171 -15.32,-6.756 -19.954,-10.617c-1.062,-0.885 -1.888,-1.604 -2.523,-2.189c-11.869,-9.741 -19.315,-23.734 -19.315,-39.271c0,-29.401 26.662,-53.271 59.502,-53.271l0.023,0Z" style="fill:#fff;"/><path d="M208.998,197.03l-16.438,37.888" style="fill:none;stroke:#98d1ef;stroke-width:14px;"/><path d="M122.751,197.03l-16.438,37.888" style="fill:none;stroke:#98d1ef;stroke-width:14px;"/><path d="M168.263,197.03l-21.214,48.896" style="fill:none;stroke:#98d1ef;stroke-width:14px;"/><path d="M82.016,197.03l-21.214,48.896" style="fill:none;stroke:#98d1ef;stroke-width:14px;"/></g></g></svg>