<?xml version="1.0" encoding="UTF-8" standalone="no"?><!DOCTYPE svg PUBLIC "-//W3C//DTD SVG 1.1//EN" "http://www.w3.org/Graphics/SVG/1.1/DTD/svg11.dtd"><svg width="100%" height="100%" viewBox="0 0 270 273" version="1.1" xmlns="http://www.w3.org/2000/svg" xmlns:xlink="http://www.w3.org/1999/xlink" xml:space="preserve" xmlns:serif="http://www.serif.com/" style="fill-rule:evenodd;clip-rule:evenodd;stroke-linejoin:round;stroke-miterlimit:1.41421;"><rect id="Snow" x="0" y="0" width="269.8" height="272.573" style="fill:none;"/><clipPath id="_clip1"><rect x="0" y="0" width="269.8" height="272.573"/></clipPath><g clip-path="url(#_clip1)"><clipPath id="_clip2"><rect x="3.256" y="0" width="263.289" height="272.573"/></clipPath><g clip-path="url(#_clip2)"><path id="rect2991" d="M122.165,0l0,33.958l-25.514,-14.751l-12.952,22.36l38.466,22.283l0,50.115l-43.209,-24.966l-0.079,-44.643l-25.852,0.052l0.052,29.658l-29.501,-17.044l-12.927,22.386l29.423,16.992l-25.54,14.699l12.875,22.412l38.544,-22.178l43.366,25.045l-43.21,24.94l-38.7,-22.256l-12.875,22.413l25.697,14.802l-29.501,17.018l12.926,22.387l29.423,-16.992l-0.052,29.475l25.852,0.052l0.079,-44.46l43.365,-25.019l0,49.881l-38.622,22.387l12.952,22.36l25.67,-14.855l0,34.062l25.853,0l0,-33.957l25.514,14.75l12.952,-22.36l-38.466,-22.282l0,-50.116l43.209,24.967l0.078,44.642l25.853,-0.052l-0.052,-29.657l29.501,17.044l12.926,-22.387l-29.423,-16.992l25.54,-14.698l-12.874,-22.413l-38.518,22.178l-43.392,-25.045l43.235,-24.966l38.675,22.282l12.874,-22.412l-25.696,-14.803l29.501,-17.018l-12.926,-22.387l-29.423,16.992l0.052,-29.475l-25.853,-0.052l-0.078,44.46l-43.365,25.019l0,-49.881l38.622,-22.387l-12.952,-22.36l-25.67,14.855l0,-34.062l-25.853,0Z" style="fill:#fff;fill-rule:nonzero;"/></g></g></svg>