<?xml version="1.0" encoding="UTF-8" standalone="no"?><!DOCTYPE svg PUBLIC "-//W3C//DTD SVG 1.1//EN" "http://www.w3.org/Graphics/SVG/1.1/DTD/svg11.dtd"><svg width="100%" height="100%" viewBox="0 0 270 270" version="1.1" xmlns="http://www.w3.org/2000/svg" xmlns:xlink="http://www.w3.org/1999/xlink" xml:space="preserve" xmlns:serif="http://www.serif.com/" style="fill-rule:evenodd;clip-rule:evenodd;stroke-linejoin:round;stroke-miterlimit:1.41421;"><rect id="Sunny" x="0" y="0" width="269.76" height="269.76" style="fill:none;"/><clipPath id="_clip1"><rect x="0" y="0" width="269.76" height="269.76"/></clipPath><g clip-path="url(#_clip1)"><g><circle cx="135.491" cy="135.015" r="64.526" style="fill:#ebdd2f;"/><path d="M135.873,0.149c1.406,0.089 1.825,0.226 2.616,0.506c3.241,1.145 5.676,4.276 5.97,7.722c0.029,0.339 0.025,0.424 0.032,0.763l0,40.588c-0.123,5.779 -6.46,10.443 -11.998,8.486c-3.483,-1.23 -5.922,-4.741 -6.002,-8.486l0,-40.588c0.033,-1.564 0.189,-2.078 0.514,-2.998c1.145,-3.241 4.277,-5.676 7.723,-5.969c0.741,-0.063 0.911,-0.029 1.145,-0.024Z" style="fill:#ebdd2f;fill-rule:nonzero;"/><path d="M135.873,211.384c1.561,0.1 2.068,0.277 2.974,0.641c3.07,1.233 5.329,4.265 5.612,7.588c0.029,0.338 0.025,0.423 0.032,0.763l0,40.588c-0.126,5.939 -6.727,10.612 -12.356,8.351c-3.311,-1.331 -5.569,-4.815 -5.644,-8.351l0,-40.588c0.033,-1.564 0.189,-2.078 0.514,-2.998c1.145,-3.241 4.277,-5.676 7.723,-5.97c0.741,-0.063 0.911,-0.029 1.145,-0.024Z" style="fill:#ebdd2f;fill-rule:nonzero;"/><path d="M231.107,39.916c0.931,1.058 1.13,1.451 1.492,2.208c1.482,3.102 0.989,7.038 -1.24,9.682c-0.219,0.26 -0.282,0.317 -0.516,0.563l-28.7,28.699c-4.174,4 -11.952,2.817 -14.485,-2.483c-1.592,-3.333 -0.835,-7.54 1.757,-10.245l28.7,-28.699c1.129,-1.083 1.603,-1.336 2.483,-1.757c3.102,-1.482 7.038,-0.989 9.682,1.24c0.568,0.479 0.665,0.623 0.827,0.792Z" style="fill:#ebdd2f;fill-rule:nonzero;"/><path d="M81.741,189.282c1.034,1.175 1.266,1.659 1.649,2.556c1.299,3.043 0.753,6.785 -1.397,9.334c-0.219,0.26 -0.282,0.317 -0.516,0.563l-28.7,28.699c-4.289,4.111 -12.261,2.748 -14.642,-2.831c-1.401,-3.283 -0.534,-7.343 1.914,-9.897l28.7,-28.699c1.129,-1.083 1.603,-1.336 2.483,-1.757c3.102,-1.482 7.038,-0.989 9.682,1.24c0.568,0.479 0.665,0.623 0.827,0.792Z" style="fill:#ebdd2f;fill-rule:nonzero;"/><path d="M270.358,136.518c-0.09,1.406 -0.227,1.825 -0.506,2.616c-1.145,3.242 -4.277,5.677 -7.723,5.97c-0.338,0.029 -0.424,0.025 -0.763,0.032l-40.588,0c-5.779,-0.122 -10.442,-6.46 -8.486,-11.998c1.231,-3.482 4.741,-5.922 8.486,-6.002l40.588,0c1.564,0.033 2.078,0.189 2.998,0.514c3.241,1.145 5.676,4.277 5.969,7.723c0.064,0.741 0.03,0.911 0.025,1.145Z" style="fill:#ebdd2f;fill-rule:nonzero;"/><path d="M59.122,136.518c-0.099,1.562 -0.277,2.068 -0.641,2.974c-1.233,3.07 -4.265,5.329 -7.587,5.612c-0.339,0.029 -0.424,0.025 -0.764,0.032l-40.587,0c-5.94,-0.126 -10.613,-6.727 -8.351,-12.355c1.33,-3.312 4.814,-5.57 8.351,-5.645l40.587,0c1.565,0.033 2.078,0.189 2.999,0.514c3.241,1.145 5.676,4.277 5.969,7.723c0.063,0.741 0.029,0.911 0.024,1.145Z" style="fill:#ebdd2f;fill-rule:nonzero;"/><path d="M230.59,231.752c-1.058,0.931 -1.451,1.13 -2.208,1.492c-3.101,1.482 -7.038,0.989 -9.682,-1.24c-0.259,-0.219 -0.317,-0.281 -0.562,-0.516l-28.7,-28.7c-4,-4.173 -2.816,-11.952 2.484,-14.485c3.332,-1.592 7.54,-0.835 10.244,1.757l28.7,28.7c1.082,1.129 1.335,1.603 1.756,2.483c1.482,3.102 0.99,7.038 -1.24,9.682c-0.479,0.568 -0.623,0.665 -0.792,0.827Z" style="fill:#ebdd2f;fill-rule:nonzero;"/><path d="M81.224,82.386c-1.175,1.034 -1.658,1.266 -2.556,1.65c-3.043,1.298 -6.784,0.752 -9.334,-1.398c-0.259,-0.219 -0.317,-0.282 -0.562,-0.516l-28.7,-28.7c-4.111,-4.289 -2.748,-12.261 2.832,-14.642c3.282,-1.401 7.342,-0.534 9.896,1.914l28.7,28.7c1.082,1.129 1.335,1.603 1.756,2.483c1.482,3.102 0.99,7.038 -1.24,9.682c-0.479,0.568 -0.623,0.665 -0.792,0.827Z" style="fill:#ebdd2f;fill-rule:nonzero;"/></g></g></svg>