<?xml version="1.0" encoding="UTF-8" standalone="no"?><!DOCTYPE svg PUBLIC "-//W3C//DTD SVG 1.1//EN" "http://www.w3.org/Graphics/SVG/1.1/DTD/svg11.dtd"><svg width="100%" height="100%" viewBox="0 0 270 270" version="1.1" xmlns="http://www.w3.org/2000/svg" xmlns:xlink="http://www.w3.org/1999/xlink" xml:space="preserve" xmlns:serif="http://www.serif.com/" style="fill-rule:evenodd;clip-rule:evenodd;stroke-linejoin:round;stroke-miterlimit:1.41421;"><rect id="Sunset" x="0" y="0" width="269.8" height="269.8" style="fill:none;"/><g><path d="M220.95,210.894c0.034,0.277 0.067,0.555 0.098,0.833c-0.031,-0.278 -0.064,-0.556 -0.098,-0.833Zm-172.297,18.37c0.034,0.343 0.071,0.686 0.109,1.028c-0.038,-0.342 -0.075,-0.685 -0.109,-1.028Zm172.53,-0.374c-0.026,0.281 -0.054,0.562 -0.084,0.843c0.029,-0.281 0.058,-0.562 0.084,-0.843Zm0.078,-0.862c-0.009,0.105 -0.018,0.211 -0.027,0.317l0.013,-0.158l0.014,-0.159Zm-172.761,-0.477c0.006,0.072 0.012,0.145 0.018,0.217l-0.005,-0.058l-0.013,-0.159Zm172.889,-1.276c-0.023,0.373 -0.049,0.745 -0.077,1.116l0.012,-0.159c0.027,-0.372 0.053,-0.744 0.075,-1.117l-0.01,0.16Zm0.092,-1.776c-0.01,0.253 -0.022,0.506 -0.035,0.758c0.013,-0.252 0.025,-0.505 0.035,-0.758Zm-173.205,-1.273c0.009,0.323 0.019,0.644 0.031,0.966l-0.012,-0.322c-0.007,-0.214 -0.013,-0.429 -0.019,-0.644Zm173.262,-0.645c-0.004,0.215 -0.009,0.43 -0.014,0.645l-0.009,0.322c0.013,-0.429 0.022,-0.859 0.028,-1.29l-0.005,0.323Zm-0.075,-5.574c0.021,0.456 0.038,0.913 0.052,1.371l-0.01,-0.322c-0.012,-0.35 -0.026,-0.7 -0.042,-1.049Zm-173.122,-0.075c-0.007,0.133 -0.012,0.266 -0.018,0.399c0.003,-0.08 0.007,-0.159 0.01,-0.239l0.008,-0.16Zm173.068,-0.961c0.014,0.244 0.027,0.488 0.039,0.733c-0.015,-0.298 -0.031,-0.596 -0.049,-0.893l0.01,0.16Zm-0.135,-1.913c0.011,0.139 0.023,0.278 0.033,0.417c-0.01,-0.139 -0.022,-0.278 -0.033,-0.417Zm-172.679,-0.794c-0.025,0.276 -0.049,0.553 -0.072,0.83c0.018,-0.224 0.038,-0.448 0.058,-0.672l0.014,-0.158Zm172.588,-0.234c0.012,0.13 0.024,0.261 0.036,0.392l0.014,0.159c-0.016,-0.184 -0.033,-0.368 -0.05,-0.551Zm-172.772,13.245c0.023,0.373 0.049,0.745 0.077,1.116l-0.012,-0.159c-0.027,-0.372 -0.053,-0.744 -0.075,-1.117l0.01,0.16Zm-0.149,-3.694c-0.008,-0.43 -0.013,-0.862 -0.014,-1.294c0.002,0.54 0.008,1.079 0.02,1.617l-0.006,-0.323Zm173.289,-0.97c0,-0.108 0.001,-0.216 0.001,-0.324c0,0.216 -0.002,0.432 -0.004,0.648l0.003,-0.324Zm-0.003,-1.619c0,0 0,0 0,0Zm-173.157,-4.021c-0.012,0.213 -0.024,0.427 -0.035,0.64l0.009,-0.16c0.011,-0.213 0.023,-0.427 0.036,-0.64l-0.01,0.16Zm0.234,-3.024c0.006,-0.065 0.013,-0.129 0.019,-0.194c-0.012,0.117 -0.023,0.235 -0.034,0.352l0.015,-0.158Zm0.225,-2.053c-0.013,0.101 -0.025,0.203 -0.037,0.305c0.018,-0.154 0.037,-0.309 0.056,-0.463l-0.019,0.158Zm220.95,20.296l-269.8,0l0,-20.454l48.869,0c5.042,-43.011 41.665,-76.426 86.031,-76.426c44.366,0 80.989,33.415 86.031,76.426l48.869,0l0,20.454Z" style="fill:#fff;"/><path d="M135.096,117.979c-0.493,0.033 -0.669,0 -0.891,-0.006l-0.058,-0.005c-0.463,-0.027 -0.746,-0.062 -1.013,-0.115c-0.694,-0.107 -1.061,-0.251 -1.615,-0.472c-0.102,-0.04 -0.202,-0.082 -0.301,-0.127c-0.561,-0.249 -1.096,-0.558 -1.591,-0.922c-0.291,-0.215 -0.406,-0.287 -0.973,-0.836l-19.524,-19.525c-0.55,-0.567 -0.622,-0.682 -0.836,-0.973c-3.54,-4.811 -0.123,-13.331 6.59,-13.534c2.309,-0.069 4.592,0.861 6.267,2.486l5.014,5.014l0,-42.162c0.051,-1.885 0.291,-2.502 0.785,-3.57c2.518,-5.442 11.557,-6.532 14.998,-0.813c0.554,0.921 0.931,1.947 1.105,3.007c0.074,0.455 0.099,0.915 0.112,1.376l0,42.163l5.014,-5.015c0.567,-0.55 0.682,-0.622 0.973,-0.836c4.896,-3.603 13.337,0.09 13.534,6.59c0.069,2.309 -0.861,4.592 -2.486,6.267l-19.525,19.525c-0.679,0.659 -0.922,0.821 -1.395,1.127c-1.007,0.651 -2.151,1.085 -3.336,1.265c-0.275,0.042 -0.436,0.078 -0.848,0.091Z" style="fill:#fff;fill-rule:nonzero;"/></g></svg>