<?xml version="1.0" encoding="UTF-8" standalone="no"?><!DOCTYPE svg PUBLIC "-//W3C//DTD SVG 1.1//EN" "http://www.w3.org/Graphics/SVG/1.1/DTD/svg11.dtd"><svg width="100%" height="100%" viewBox="0 0 270 273" version="1.1" xmlns="http://www.w3.org/2000/svg" xmlns:xlink="http://www.w3.org/1999/xlink" xml:space="preserve" xmlns:serif="http://www.serif.com/" style="fill-rule:evenodd;clip-rule:evenodd;stroke-linejoin:round;stroke-miterlimit:1.41421;"><rect id="Wind" x="0" y="0" width="269.8" height="272.573" style="fill:none;"/><g><path d="M11.73,141.925c-3.268,0 -5.918,-2.65 -5.918,-5.919c0,-3.268 2.65,-5.919 5.918,-5.919l214.077,0l0.093,0c15.745,-0.05 28.494,-12.829 28.494,-28.587c0,-15.787 -12.798,-28.587 -28.587,-28.587c-15.788,0 -28.587,12.799 -28.587,28.587c0,3.269 -2.65,5.919 -5.918,5.919c-3.269,0 -5.919,-2.65 -5.919,-5.919c0,-22.325 18.098,-40.424 40.424,-40.424c22.325,0 40.424,18.099 40.424,40.424c0,22.326 -18.099,40.425 -40.424,40.425l-214.077,0Z" style="fill:#fff;fill-rule:nonzero;stroke:#fff;stroke-width:2.8px;"/><path d="M24.87,113.788c-3.269,0 -5.918,-2.65 -5.918,-5.918c0,-3.269 2.649,-5.919 5.918,-5.919l108.844,0l0.092,0c15.745,-0.05 28.495,-12.829 28.495,-28.587c0,-15.789 -12.799,-28.587 -28.587,-28.587c-15.788,0 -28.587,12.798 -28.587,28.587c0,3.268 -2.651,5.919 -5.919,5.919c-3.269,0 -5.919,-2.651 -5.919,-5.919c0,-22.326 18.099,-40.424 40.424,-40.424c22.326,0 40.424,18.099 40.424,40.424c0.001,22.326 -18.098,40.424 -40.423,40.424l-108.844,0Z" style="fill:#fff;fill-rule:nonzero;stroke:#fff;stroke-width:2.8px;"/><path d="M152.12,158.224l0.001,0c22.341,0 40.453,18.111 40.453,40.454c0,22.342 -18.112,40.453 -40.453,40.453l0,-0.058l-0.001,0c-22.312,-0.034 -40.391,-18.112 -40.424,-40.424c0,-3.269 2.65,-5.919 5.919,-5.919c3.269,0 5.919,2.65 5.919,5.919c0,15.787 12.798,28.587 28.587,28.587c15.788,0 28.587,-12.799 28.587,-28.587c0,-15.788 -12.799,-28.588 -28.587,-28.588l-0.001,0l0,0l-127.25,0c-3.269,0 -5.918,-2.65 -5.918,-5.918c0,-3.269 2.649,-5.919 5.918,-5.919l127.25,0l0,0Z" style="fill:#fff;fill-rule:nonzero;stroke:#fff;stroke-width:2.8px;"/></g></svg>